# This file uses centimeters as units for non-parametric coordinates.

mtllib HolographyThing.mtl
g default
v -0.110878 1.272463 0.009464
v 0.110878 1.272463 0.009464
v -0.394134 2.060731 0.009464
v 0.394134 2.060731 0.009464
v -0.394134 2.060731 -0.009464
v 0.394134 2.060731 -0.009464
v -0.110878 1.272463 -0.009464
v 0.110878 1.272463 -0.009464
vt 0.933337 0.318411
vt 0.900173 0.318415
vt 0.860088 0.432540
vt 0.977974 0.432524
vt 0.860111 0.430245
vt 0.977997 0.430229
vt 0.900196 0.316120
vt 0.933360 0.316116
vn 0.000000 0.000000 1.000000
vn 0.000000 0.000000 1.000000
vn 0.000000 0.000000 1.000000
vn 0.000000 0.000000 1.000000
vn 0.000000 1.000000 0.000000
vn 0.000000 1.000000 0.000000
vn 0.000000 1.000000 0.000000
vn 0.000000 1.000000 0.000000
vn 0.000000 0.000000 -1.000000
vn 0.000000 0.000000 -1.000000
vn 0.000000 0.000000 -1.000000
vn 0.000000 0.000000 -1.000000
vn 0.000000 -1.000000 0.000000
vn 0.000000 -1.000000 0.000000
vn 0.000000 -1.000000 0.000000
vn 0.000000 -1.000000 0.000000
vn 0.941085 -0.338169 0.000000
vn 0.941085 -0.338169 0.000000
vn 0.941085 -0.338169 0.000000
vn 0.941085 -0.338169 0.000000
vn -0.941085 -0.338169 0.000000
vn -0.941085 -0.338169 0.000000
vn -0.941085 -0.338169 0.000000
vn -0.941085 -0.338169 0.000000
s off
g pCube2
usemtl initialShadingGroup
f 1/1/1 2/2/2 4/3/3 3/4/4
f 3/4/5 4/3/6 6/5/7 5/6/8
f 5/6/9 6/5/10 8/7/11 7/8/12
f 7/8/13 8/7/14 2/2/15 1/1/16
f 2/2/17 8/7/18 6/5/19 4/3/20
f 7/8/21 1/1/22 3/4/23 5/6/24
g default
v 0.740910 1.824519 -0.246499
v 0.627607 1.824519 -0.468868
v 0.451133 1.824519 -0.645342
v 0.228764 1.824519 -0.758645
v -0.017735 1.824519 -0.797686
v -0.264233 1.824519 -0.758645
v -0.486603 1.824519 -0.645342
v -0.663076 1.824519 -0.468868
v -0.776379 1.824519 -0.246499
v -0.815421 1.824519 0.000000
v -0.776379 1.824519 0.246499
v -0.663076 1.824519 0.468868
v -0.486603 1.824519 0.645341
v -0.264233 1.824519 0.758644
v -0.017735 1.824519 0.797686
v 0.228764 1.824519 0.758644
v 0.451133 1.824519 0.645341
v 0.627607 1.824519 0.468868
v 0.740909 1.824519 0.246498
v 0.779951 1.824519 0.000000
v 0.740910 1.892397 -0.246499
v 0.627607 1.892397 -0.468868
v 0.451133 1.892397 -0.645342
v 0.228764 1.892397 -0.758645
v -0.017735 1.892397 -0.797686
v -0.264233 1.892397 -0.758645
v -0.486603 1.892397 -0.645342
v -0.663076 1.892397 -0.468868
v -0.776379 1.892397 -0.246499
v -0.815421 1.892397 0.000000
v -0.776379 1.892397 0.246499
v -0.663076 1.892397 0.468868
v -0.486603 1.892397 0.645341
v -0.264233 1.892397 0.758644
v -0.017735 1.892397 0.797686
v 0.228764 1.892397 0.758644
v 0.451133 1.892397 0.645341
v 0.627607 1.892397 0.468868
v 0.740909 1.892397 0.246498
v 0.779951 1.892397 0.000000
v 0.587894 1.892397 -0.440015
v 0.422280 1.892397 -0.605629
v 0.213595 1.892397 -0.711959
v -0.017735 1.892397 -0.748598
v -0.249064 1.892397 -0.711959
v -0.457750 1.892397 -0.605629
v -0.623363 1.892397 -0.440015
v -0.729694 1.892397 -0.231329
v -0.766333 1.892397 0.000000
v -0.729694 1.892397 0.231330
v -0.623363 1.892397 0.440015
v -0.457750 1.892397 0.605628
v -0.249064 1.892397 0.711959
v -0.017735 1.892397 0.748598
v 0.213595 1.892397 0.711959
v 0.422280 1.892397 0.605628
v 0.587894 1.892397 0.440015
v 0.694224 1.892397 0.231329
v 0.730863 1.892397 0.000000
v 0.694225 1.892397 -0.231330
v 0.689037 1.824519 -0.229644
v 0.725409 1.824519 0.000000
v 0.689037 1.824519 0.229644
v 0.583481 1.824519 0.436809
v 0.419074 1.824519 0.601216
v 0.211909 1.824519 0.706771
v -0.017735 1.824519 0.743143
v -0.247379 1.824519 0.706771
v -0.454544 1.824519 0.601216
v -0.618951 1.824519 0.436809
v -0.724506 1.824519 0.229644
v -0.760878 1.824519 0.000000
v -0.724506 1.824519 -0.229644
v -0.618951 1.824519 -0.436809
v -0.454544 1.824519 -0.601216
v -0.247379 1.824519 -0.706772
v -0.017735 1.824519 -0.743144
v 0.211909 1.824519 -0.706772
v 0.419074 1.824519 -0.601216
v 0.583481 1.824519 -0.436809
vt 0.136296 0.531327
vt 0.160879 0.497468
vt 0.167785 0.504383
vt 0.144802 0.535748
vt 0.132717 0.572721
vt 0.122870 0.571091
vt 0.122884 0.613138
vt 0.132551 0.611623
vt 0.135797 0.653139
vt 0.144512 0.648699
vt 0.160447 0.687177
vt 0.167351 0.680250
vt 0.194389 0.711889
vt 0.198812 0.703166
vt 0.234316 0.724922
vt 0.235824 0.715258
vt 0.276327 0.724950
vt 0.274760 0.715296
vt 0.316247 0.711982
vt 0.311767 0.703289
vt 0.350120 0.687373
vt 0.343193 0.680469
vt 0.374839 0.653536
vt 0.366128 0.649086
vt 0.387908 0.613632
vt 0.378247 0.612103
vt 0.387982 0.571626
vt 0.378325 0.573173
vt 0.375063 0.531705
vt 0.366356 0.536159
vt 0.350449 0.497712
vt 0.343545 0.504641
vt 0.316497 0.473006
vt 0.312087 0.481736
vt 0.276589 0.460043
vt 0.275104 0.469709
vt 0.234727 0.460054
vt 0.236280 0.469711
vt 0.194847 0.472895
vt 0.199287 0.481611
vt 0.149963 0.575541
vt 0.160409 0.543737
vt 0.149887 0.608984
vt 0.160155 0.640796
vt 0.179753 0.667873
vt 0.206768 0.687566
vt 0.238564 0.697950
vt 0.271987 0.697994
vt 0.303767 0.687711
vt 0.330822 0.668097
vt 0.350544 0.641084
vt 0.360944 0.609326
vt 0.361019 0.575909
vt 0.350752 0.544100
vt 0.331148 0.517026
vt 0.304151 0.497360
vt 0.272411 0.487017
vt 0.239016 0.487002
vt 0.207187 0.497247
vt 0.180123 0.516801
vt 0.202822 0.488621
vt 0.173307 0.509955
vt 0.237498 0.477464
vt 0.273886 0.477464
vt 0.308523 0.488733
vt 0.337984 0.510185
vt 0.359357 0.539711
vt 0.370568 0.574389
vt 0.370495 0.610850
vt 0.359148 0.645492
vt 0.337653 0.674914
vt 0.308193 0.696302
vt 0.273527 0.707541
vt 0.237061 0.707503
vt 0.202386 0.696178
vt 0.172915 0.674710
vt 0.151524 0.645163
vt 0.140321 0.610448
vt 0.140448 0.573996
vt 0.151790 0.539344
vt 0.833969 0.481428
vt 0.866240 0.470937
vt 0.806520 0.501377
vt 0.786579 0.528833
vt 0.776098 0.561106
vt 0.776103 0.595039
vt 0.786594 0.627310
vt 0.806543 0.654759
vt 0.833998 0.674700
vt 0.866272 0.685181
vt 0.900205 0.685176
vt 0.932475 0.674686
vt 0.959925 0.654736
vt 0.979866 0.627281
vt 0.990347 0.595007
vt 0.990342 0.561075
vt 0.979851 0.528804
vt 0.959902 0.501355
vt 0.932447 0.481413
vt 0.900173 0.470932
vt 0.801491 0.496349
vt 0.830740 0.475092
vt 0.780242 0.525605
vt 0.769073 0.559995
vt 0.769079 0.596153
vt 0.780257 0.630539
vt 0.801515 0.659789
vt 0.830770 0.681037
vt 0.865160 0.692206
vt 0.901318 0.692200
vt 0.935705 0.681022
vt 0.964954 0.659765
vt 0.986203 0.630509
vt 0.997371 0.596119
vt 0.997366 0.559961
vt 0.986188 0.525574
vt 0.964930 0.496325
vt 0.935674 0.475076
vt 0.901285 0.463908
vt 0.865126 0.463913
vn 0.809017 0.000000 -0.587785
vn 0.951057 0.000000 -0.309016
vn 0.951057 0.000000 -0.309016
vn 0.809017 0.000000 -0.587785
vn 0.587785 0.000000 -0.809017
vn 0.587785 0.000000 -0.809017
vn 0.309017 0.000000 -0.951057
vn 0.309017 0.000000 -0.951057
vn -0.000000 0.000000 -1.000000
vn -0.000000 0.000000 -1.000000
vn -0.309017 0.000000 -0.951057
vn -0.309017 0.000000 -0.951057
vn -0.587786 0.000000 -0.809017
vn -0.587786 0.000000 -0.809017
vn -0.809017 0.000000 -0.587785
vn -0.809017 0.000000 -0.587785
vn -0.951057 0.000000 -0.309017
vn -0.951057 0.000000 -0.309017
vn -1.000000 0.000000 0.000000
vn -1.000000 0.000000 0.000000
vn -0.951057 0.000000 0.309017
vn -0.951057 0.000000 0.309017
vn -0.809017 0.000000 0.587785
vn -0.809017 0.000000 0.587785
vn -0.587785 0.000000 0.809017
vn -0.587785 0.000000 0.809017
vn -0.309017 0.000000 0.951056
vn -0.309017 0.000000 0.951056
vn 0.000000 0.000000 1.000000
vn 0.000000 0.000000 1.000000
vn 0.309017 0.000000 0.951056
vn 0.309017 0.000000 0.951056
vn 0.587785 0.000000 0.809017
vn 0.587785 0.000000 0.809017
vn 0.809017 0.000000 0.587785
vn 0.809017 0.000000 0.587785
vn 0.951057 0.000000 0.309017
vn 0.951057 0.000000 0.309017
vn 1.000000 0.000000 0.000001
vn 1.000000 0.000000 0.000001
vn 0.000000 1.000000 0.000000
vn 0.000000 1.000000 0.000000
vn -0.435766 0.671096 0.599781
vn -0.599781 0.671096 0.435767
vn 0.000000 1.000000 0.000000
vn -0.229096 0.671096 0.705085
vn 0.000000 1.000000 0.000000
vn 0.000000 0.671096 0.741370
vn 0.000000 1.000000 0.000000
vn 0.229096 0.671096 0.705085
vn 0.000000 1.000000 0.000000
vn 0.435767 0.671096 0.599781
vn 0.000000 1.000000 0.000000
vn 0.599781 0.671096 0.435766
vn 0.000000 1.000000 -0.000000
vn 0.705085 0.671096 0.229096
vn 0.000000 1.000000 0.000000
vn 0.741370 0.671096 0.000000
vn 0.000000 1.000000 0.000000
vn 0.705085 0.671096 -0.229096
vn 0.000000 1.000000 -0.000000
vn 0.599781 0.671096 -0.435766
vn 0.000000 1.000000 -0.000000
vn 0.435767 0.671096 -0.599781
vn 0.000000 1.000000 -0.000000
vn 0.229096 0.671096 -0.705085
vn 0.000000 1.000000 -0.000000
vn 0.000000 0.671096 -0.741370
vn 0.000000 1.000000 -0.000000
vn -0.229096 0.671096 -0.705085
vn 0.000000 1.000000 -0.000000
vn -0.435767 0.671095 -0.599782
vn 0.000000 1.000000 0.000000
vn -0.599781 0.671096 -0.435767
vn 0.000000 1.000000 0.000000
vn -0.705086 0.671095 -0.229096
vn 0.000000 1.000000 0.000000
vn -0.741371 0.671096 -0.000001
vn 0.000000 1.000000 0.000000
vn -0.705085 0.671097 0.229095
vn 0.000000 -1.000000 0.000000
vn 0.000000 -1.000000 0.000000
vn -0.768612 -0.639715 -0.000001
vn -0.730994 -0.639715 0.237513
vn 0.000000 -1.000000 -0.000000
vn -0.730994 -0.639715 -0.237514
vn 0.000000 -1.000000 0.000000
vn -0.621820 -0.639715 -0.451779
vn 0.000000 -1.000000 0.000000
vn -0.451779 -0.639715 -0.621820
vn 0.000000 -1.000000 0.000000
vn -0.237514 -0.639715 -0.730994
vn 0.000000 -1.000000 0.000000
vn 0.000000 -0.639715 -0.768612
vn 0.000000 -1.000000 0.000000
vn 0.237514 -0.639715 -0.730993
vn 0.000000 -1.000000 0.000000
vn 0.451779 -0.639715 -0.621820
vn 0.000000 -1.000000 0.000000
vn 0.621820 -0.639715 -0.451779
vn 0.000000 -1.000000 -0.000000
vn 0.730993 -0.639715 -0.237514
vn 0.000000 -1.000000 0.000000
vn 0.768612 -0.639716 0.000000
vn 0.000000 -1.000000 0.000000
vn 0.730993 -0.639715 0.237514
vn 0.000000 -1.000000 -0.000000
vn 0.621820 -0.639715 0.451779
vn 0.000000 -1.000000 -0.000000
vn 0.451779 -0.639715 0.621820
vn 0.000000 -1.000000 -0.000000
vn 0.237514 -0.639715 0.730993
vn 0.000000 -1.000000 -0.000000
vn 0.000000 -0.639715 0.768612
vn 0.000000 -1.000000 -0.000000
vn -0.237514 -0.639716 0.730993
vn 0.000000 -1.000000 -0.000000
vn -0.451779 -0.639716 0.621820
vn 0.000000 -1.000000 -0.000000
vn -0.621820 -0.639715 0.451779
s 1
g pCylinder1
usemtl initialShadingGroup
f 30/9/25 29/10/26 9/11/27 10/12/28
f 11/13/29 31/14/30 30/9/25 10/12/28
f 32/15/31 31/14/30 11/13/29 12/16/32
f 33/17/33 32/15/31 12/16/32 13/18/34
f 34/19/35 33/17/33 13/18/34 14/20/36
f 35/21/37 34/19/35 14/20/36 15/22/38
f 36/23/39 35/21/37 15/22/38 16/24/40
f 37/25/41 36/23/39 16/24/40 17/26/42
f 38/27/43 37/25/41 17/26/42 18/28/44
f 39/29/45 38/27/43 18/28/44 19/30/46
f 40/31/47 39/29/45 19/30/46 20/32/48
f 41/33/49 40/31/47 20/32/48 21/34/50
f 42/35/51 41/33/49 21/34/50 22/36/52
f 43/37/53 42/35/51 22/36/52 23/38/54
f 44/39/55 43/37/53 23/38/54 24/40/56
f 45/41/57 44/39/55 24/40/56 25/42/58
f 46/43/59 45/41/57 25/42/58 26/44/60
f 47/45/61 46/43/59 26/44/60 27/46/62
f 48/47/63 47/45/61 27/46/62 28/48/64
f 29/10/26 48/47/63 28/48/64 9/11/27
s 2
f 30/128/65 31/127/66 50/108/67 49/90/68
f 31/127/66 32/126/69 51/107/70 50/108/67
f 32/126/69 33/125/71 52/106/72 51/107/70
f 33/125/71 34/124/73 53/105/74 52/106/72
f 34/124/73 35/123/75 54/104/76 53/105/74
f 35/123/75 36/122/77 55/103/78 54/104/76
f 36/122/77 37/121/79 56/102/80 55/103/78
f 37/121/79 38/120/81 57/101/82 56/102/80
f 38/120/81 39/119/83 58/100/84 57/101/82
f 39/119/83 40/118/85 59/99/86 58/100/84
f 40/118/85 41/117/87 60/98/88 59/99/86
f 41/117/87 42/116/89 61/97/90 60/98/88
f 42/116/89 43/115/91 62/96/92 61/97/90
f 43/115/91 44/114/93 63/95/94 62/96/92
f 44/114/93 45/113/95 64/94/96 63/95/94
f 45/113/95 46/112/97 65/93/98 64/94/96
f 46/112/97 47/111/99 66/92/100 65/93/98
f 47/111/99 48/109/101 67/91/102 66/92/100
f 48/109/101 29/110/103 68/89/104 67/91/102
f 29/110/103 30/128/65 49/90/68 68/89/104
f 9/11/105 28/48/106 70/69/107 69/70/108
f 28/48/106 27/46/109 71/71/110 70/69/107
f 27/46/109 26/44/111 72/72/112 71/71/110
f 26/44/111 25/42/113 73/73/114 72/72/112
f 25/42/113 24/40/115 74/74/116 73/73/114
f 24/40/115 23/38/117 75/75/118 74/74/116
f 23/38/117 22/36/119 76/76/120 75/75/118
f 22/36/119 21/34/121 77/77/122 76/76/120
f 21/34/121 20/32/123 78/78/124 77/77/122
f 20/32/123 19/30/125 79/79/126 78/78/124
f 19/30/125 18/28/127 80/80/128 79/79/126
f 18/28/127 17/26/129 81/81/130 80/80/128
f 17/26/129 16/24/131 82/82/132 81/81/130
f 16/24/131 15/22/133 83/83/134 82/82/132
f 15/22/133 14/20/135 84/84/136 83/83/134
f 14/20/135 13/18/137 85/85/138 84/84/136
f 13/18/137 12/16/139 86/86/140 85/85/138
f 12/16/139 11/13/141 87/87/142 86/86/140
f 11/13/141 10/12/143 88/88/144 87/87/142
f 10/12/143 9/11/105 69/70/108 88/88/144
f 66/66/100 67/67/102 70/69/107 71/71/110
f 65/65/98 66/66/100 71/71/110 72/72/112
f 64/64/96 65/65/98 72/72/112 73/73/114
f 67/67/102 68/68/104 69/70/108 70/69/107
f 68/68/104 49/50/68 88/88/144 69/70/108
f 63/63/94 64/64/96 73/73/114 74/74/116
f 62/62/92 63/63/94 74/74/116 75/75/118
f 49/50/68 50/49/67 87/87/142 88/88/144
f 50/49/67 51/51/70 86/86/140 87/87/142
f 51/51/70 52/52/72 85/85/138 86/86/140
f 52/52/72 53/53/74 84/84/136 85/85/138
f 82/82/132 83/83/134 54/54/76 55/55/78
f 83/83/134 84/84/136 53/53/74 54/54/76
f 81/81/130 82/82/132 55/55/78 56/56/80
f 80/80/128 81/81/130 56/56/80 57/57/82
f 79/79/126 80/80/128 57/57/82 58/58/84
f 78/78/124 79/79/126 58/58/84 59/59/86
f 77/77/122 78/78/124 59/59/86 60/60/88
f 76/76/120 77/77/122 60/60/88 61/61/90
f 75/75/118 76/76/120 61/61/90 62/62/92
g default
v -0.582803 2.182841 0.028731
v 0.597190 2.184719 0.029835
v -0.561644 3.358070 0.028731
v 0.566754 3.362058 0.028731
v -0.561644 3.358070 -0.028731
v 0.566754 3.362058 -0.028731
v -0.582803 2.182841 -0.028731
v 0.597190 2.184719 -0.027627
v -0.513001 2.122795 0.028731
v -0.513001 3.405299 0.028731
v -0.513001 3.405299 -0.028731
v -0.513001 2.122795 -0.028731
v 0.525826 2.122795 0.028731
v 0.525826 3.405299 0.028731
v 0.525826 3.405299 -0.028731
v 0.525826 2.122795 -0.028731
v -0.641252 3.277048 0.028731
v -0.641252 3.277048 -0.028731
v -0.513001 3.277048 -0.028731
v 0.525826 3.277048 -0.028731
v 0.641252 3.277048 -0.028731
v 0.641252 3.277048 0.028731
v 0.525826 3.277048 0.028731
v -0.513001 3.277048 0.028731
v -0.641252 2.238221 0.028731
v -0.641252 2.238221 -0.028731
v -0.513001 2.238221 -0.028731
v 0.525826 2.238221 -0.028731
v 0.641252 2.238221 -0.028731
v 0.641252 2.238221 0.028731
v 0.525826 2.238221 0.028731
v -0.513001 2.238221 0.028731
vt 0.556793 0.411315
vt 0.667614 0.411315
vt 0.556793 0.522136
vt 0.667614 0.522136
vt 0.556793 0.632958
vt 0.667614 0.632958
vt 0.556793 0.743779
vt 0.667614 0.743779
vt 0.556793 0.854600
vt 0.667614 0.854600
vt 0.778436 0.411315
vt 0.778436 0.522136
vt 0.445972 0.411315
vt 0.445972 0.522136
vt 0.567875 0.411315
vt 0.567875 0.854600
vt 0.567875 0.522136
vt 0.567875 0.632958
vt 0.567875 0.743779
vt 0.657640 0.411315
vt 0.657640 0.854600
vt 0.657640 0.522136
vt 0.657640 0.632958
vt 0.657640 0.743779
vt 0.556793 0.511054
vt 0.445972 0.511054
vt 0.556793 0.644040
vt 0.567875 0.644040
vt 0.657640 0.644040
vt 0.667614 0.644040
vt 0.778436 0.511054
vt 0.667614 0.511054
vt 0.657640 0.511054
vt 0.567875 0.511054
vt 0.556793 0.421289
vt 0.445972 0.421289
vt 0.556793 0.733805
vt 0.567875 0.733805
vt 0.657640 0.733805
vt 0.667614 0.733805
vt 0.778436 0.421289
vt 0.667614 0.421289
vt 0.657640 0.421289
vt 0.567875 0.421289
vn 0.000000 0.000000 1.000000
vn 0.000000 0.000000 1.000000
vn 0.000000 0.000000 1.000000
vn 0.000000 0.000000 1.000000
vn -0.696606 0.717454 0.000000
vn -0.043389 0.999058 0.000000
vn -0.043389 0.999058 0.000000
vn -0.696606 0.717454 0.000000
vn 0.000000 0.000000 -1.000000
vn 0.000000 0.000000 -1.000000
vn 0.000000 0.000000 -1.000000
vn 0.000000 0.000000 -1.000000
vn -0.652142 -0.758097 0.000000
vn -0.054083 -0.998537 0.000000
vn -0.054083 -0.998537 0.000000
vn -0.652142 -0.758097 0.000000
vn 0.771921 -0.635718 -0.000000
vn 0.771921 -0.635718 -0.000000
vn 0.999491 -0.031889 -0.000000
vn 0.998821 -0.048534 -0.000000
vn -0.687790 -0.725909 -0.000001
vn -0.687790 -0.725909 -0.000001
vn -0.998576 -0.053341 -0.000000
vn -0.998576 -0.053341 -0.000000
vn -0.000048 0.000048 1.000000
vn -0.000289 0.000289 1.000000
vn 0.040015 0.999199 0.000000
vn 0.040015 0.999199 0.000000
vn 0.000048 -0.000048 -1.000000
vn 0.000289 -0.000289 -1.000000
vn 0.047159 -0.998887 0.000000
vn 0.064035 -0.997948 0.000000
vn -0.000303 0.000303 1.000000
vn -0.008841 0.008841 0.999922
vn 0.726273 0.687407 0.000000
vn 0.726273 0.687407 0.000000
vn 0.000303 -0.000303 -1.000000
vn 0.008841 -0.008841 -0.999922
vn 0.655383 -0.755296 0.000000
vn 0.655383 -0.755296 0.000000
vn -0.997483 0.070909 0.000000
vn -0.997483 0.070909 0.000000
vn -0.713301 0.700857 0.000000
vn -0.713301 0.700857 0.000000
vn 0.000000 0.000000 -1.000000
vn 0.000000 0.000000 -1.000000
vn 0.000000 0.000000 -1.000000
vn 0.000000 0.000000 -1.000000
vn 0.000000 0.000000 -1.000000
vn 0.000000 0.000000 -1.000000
vn 0.000000 0.000000 -1.000000
vn 0.000000 0.000000 -1.000000
vn 0.997810 0.066144 0.000000
vn 0.997810 0.066144 0.000000
vn 0.752072 0.659081 0.000000
vn 0.752072 0.659081 0.000000
vn 0.000000 0.000000 1.000000
vn 0.000000 0.000000 1.000000
vn 0.000000 0.000000 1.000000
vn 0.000000 0.000000 1.000000
vn 0.000000 0.000000 1.000000
vn 0.000000 0.000000 1.000000
vn 0.000000 0.000000 1.000000
vn 0.000000 0.000000 1.000000
s 1
g pCube3
usemtl initialShadingGroup
f 89/129/145 97/143/146 120/172/147 113/163/148
s 2
f 91/131/149 98/145/150 99/146/151 93/133/152
s 3
f 114/165/153 115/166/154 100/147/155 95/135/156
s 4
f 95/135/157 100/147/158 97/144/159 89/137/160
s 5
f 90/130/161 96/139/162 117/169/163 118/170/164
s 6
f 95/141/165 89/129/166 113/163/167 114/164/168
s 1
f 119/171/169 120/172/147 97/143/146 101/148/170
s 2
f 99/146/151 98/145/150 102/150/171 103/151/172
s 3
f 100/147/155 115/166/154 116/167/173 104/152/174
s 4
f 97/144/159 100/147/158 104/152/175 101/149/176
s 1
f 118/170/177 119/171/169 101/148/170 90/130/178
s 2
f 103/151/172 102/150/171 92/132/179 94/134/180
s 3
f 104/152/174 116/167/173 117/168/181 96/136/182
s 4
f 101/149/176 104/152/175 96/136/183 90/138/184
s 6
f 106/154/185 105/153/186 91/131/187 93/142/188
s 3
f 93/133/189 99/146/190 107/156/191 106/155/192
f 108/157/193 107/156/191 99/146/190 103/151/194
f 109/158/195 108/157/193 103/151/194 94/134/196
s 5
f 110/160/197 109/159/198 94/140/199 92/132/200
s 1
f 102/150/201 111/161/202 110/160/203 92/132/204
f 98/145/205 112/162/206 111/161/202 102/150/201
f 105/153/207 112/162/206 98/145/205 91/131/208
s 6
f 114/164/168 113/163/167 105/153/186 106/154/185
s 3
f 106/155/192 107/156/191 115/166/154 114/165/153
f 116/167/173 115/166/154 107/156/191 108/157/193
f 117/168/181 116/167/173 108/157/193 109/158/195
s 5
f 118/170/164 117/169/163 109/159/198 110/160/197
s 1
f 110/160/203 111/161/202 119/171/169 118/170/177
f 111/161/202 112/162/206 120/172/147 119/171/169
f 113/163/148 120/172/147 112/162/206 105/153/207
g default
v -0.919579 0.000000 0.919579
v 0.919579 0.000000 0.919579
v -0.773223 0.256094 0.773223
v 0.773223 0.256094 0.773223
v -0.773223 0.256094 -0.773223
v 0.773223 0.256094 -0.773223
v -0.919579 0.000000 -0.919579
v 0.919579 0.000000 -0.919579
v -0.773223 0.256094 -0.557419
v -0.919579 0.000000 -0.583709
v 0.919579 0.000000 -0.583709
v 0.773223 0.256094 -0.557419
v -0.773223 0.256094 0.579213
v -0.919579 0.000000 0.603867
v 0.919579 0.000000 0.603867
v 0.773223 0.256094 0.579213
v -0.735663 0.000000 0.919579
v -0.618578 0.256094 0.773223
v -0.618578 0.256094 0.579213
v -0.618578 0.256094 -0.557419
v -0.618578 0.256094 -0.773223
v -0.735663 0.000000 -0.919579
v -0.735663 0.000000 -0.583709
v -0.735663 0.000000 0.603867
v 0.634043 0.256094 -0.557419
v 0.634043 0.256094 0.579213
v 0.634043 0.256094 0.773223
v 0.754055 0.000000 0.919579
v 0.754055 0.000000 0.603867
v 0.754055 0.000000 -0.583709
v 0.754055 0.000000 -0.919579
v 0.634043 0.256094 -0.773223
v -0.618578 1.259502 0.579213
v -0.618578 1.259502 -0.557419
v 0.634043 1.259502 0.579213
v 0.634043 1.259502 -0.557419
v -0.840371 1.499470 0.780468
v -0.840371 1.499470 -0.758675
v 0.855836 1.499470 0.780468
v 0.855836 1.499470 -0.758675
v -0.756492 1.693566 0.704356
v -0.756492 1.693566 -0.682562
v 0.771956 1.693566 0.704356
v 0.771956 1.693566 -0.682562
v -0.586692 0.000000 0.919579
v -0.493316 0.256094 0.773223
v -0.493316 0.256094 0.579213
v -0.493316 1.259502 0.579213
v -0.670750 1.499470 0.780468
v -0.603647 1.693566 0.704356
v -0.603647 1.693566 -0.682562
v -0.670750 1.499470 -0.758675
v -0.493316 1.259502 -0.557419
v -0.493316 0.256094 -0.557419
v -0.493316 0.256094 -0.773223
v -0.586692 0.000000 -0.919579
v -0.586692 0.000000 -0.583709
v -0.586692 0.000000 0.603867
v 0.521307 0.256094 -0.557419
v 0.521307 1.259502 -0.557419
v 0.703177 1.499470 -0.758674
v 0.634396 1.693566 -0.682562
v 0.634396 1.693566 0.704356
v 0.703177 1.499470 0.780468
v 0.521307 1.259502 0.579213
v 0.521307 0.256094 0.579213
v 0.521307 0.256094 0.773223
v 0.619980 0.000000 0.919579
v 0.619980 0.000000 0.603867
v 0.619980 0.000000 -0.583709
v 0.619980 0.000000 -0.919579
v 0.521307 0.256094 -0.773223
v -0.919579 0.000000 0.485110
v -0.773223 0.256094 0.465550
v -0.618578 0.256094 0.465550
v -0.618578 1.259502 0.465550
v -0.840371 1.499470 0.626554
v -0.756492 1.693566 0.565664
v -0.603647 1.693566 0.565664
v 0.634396 1.693566 0.565664
v 0.771956 1.693566 0.565664
v 0.855836 1.499470 0.626554
v 0.634043 1.259502 0.465550
v 0.634043 0.256094 0.465550
v 0.773223 0.256094 0.465550
v 0.919579 0.000000 0.485110
v 0.754055 0.000000 0.485110
v 0.619980 0.000000 0.485110
v -0.586692 0.000000 0.485110
v -0.735663 0.000000 0.485110
v -0.919579 0.000000 -0.476828
v -0.773223 0.256094 -0.455122
v -0.618578 0.256094 -0.455122
v -0.618578 1.259502 -0.455122
v -0.840371 1.499470 -0.620152
v -0.756492 1.693566 -0.557740
v -0.603647 1.693566 -0.557740
v 0.634396 1.693566 -0.557740
v 0.771956 1.693566 -0.557740
v 0.855836 1.499470 -0.620152
v 0.634043 1.259502 -0.455122
v 0.634043 0.256094 -0.455122
v 0.773223 0.256094 -0.455122
v 0.919579 0.000000 -0.476828
v 0.754055 0.000000 -0.476828
v 0.619980 0.000000 -0.476828
v -0.586692 0.000000 -0.476828
v -0.735663 0.000000 -0.476828
v -0.411874 1.025966 -0.383725
v 0.442623 1.025966 -0.383725
v -0.411874 1.025966 0.391649
v 0.442623 1.025966 0.391649
vt 0.816299 0.070858
vt 0.789653 0.070857
vt 0.772692 0.028121
vt 0.859032 0.092065
vt 0.772693 0.000013
vt 0.859031 0.120173
vt 0.859020 0.316115
vt 0.772673 0.380049
vt 0.789639 0.337315
vt 0.816284 0.337317
vt 0.816296 0.116599
vt 0.789650 0.116597
vt 0.549840 0.070844
vt 0.549838 0.116585
vt 0.507103 0.120155
vt 0.507105 0.092046
vt 0.816287 0.288656
vt 0.859022 0.284849
vt 0.789641 0.288654
vt 0.507094 0.284830
vt 0.549829 0.288642
vt 0.549826 0.337303
vt 0.571028 0.380038
vt 0.881427 0.284850
vt 0.816288 0.273171
vt 0.859023 0.270028
vt 0.789642 0.273169
vt 0.507095 0.270010
vt 0.549830 0.273156
vt 0.014848 0.854501
vt 0.591211 0.028112
vt 0.573821 0.070846
vt 0.486939 0.120153
vt 0.510859 0.854592
vt 0.486931 0.270009
vt 0.591193 0.380039
vt 0.573807 0.337304
vt 0.573810 0.288643
vt 0.573811 0.273158
vt 0.573819 0.116586
vt 0.042774 0.184897
vt 0.055475 0.172023
vt 0.071239 0.187576
vt 0.058538 0.200449
vt 0.754544 0.028120
vt 0.754545 0.000012
vt 0.768070 0.070856
vt 0.768067 0.116596
vt 0.768059 0.273168
vt 0.768058 0.288653
vt 0.768055 0.337314
vt 0.754525 0.380048
vt 0.674191 0.854622
vt 0.010409 0.106675
vt 0.000000 0.999872
vt 0.182824 0.999906
vt 0.164676 0.999903
vt 0.496011 0.999964
vt 0.132468 0.484561
vt 0.016199 0.369849
vt 0.027318 0.156945
vt 0.013222 0.171231
vt 0.318307 0.027039
vt 0.300813 0.009780
vt 0.332284 0.457829
vt 0.187211 0.474829
vt 0.029768 0.319494
vt 0.304014 0.055369
vt 0.288250 0.039817
vt 0.316827 0.429876
vt 0.199774 0.444792
vt 0.607544 0.028113
vt 0.593246 0.070847
vt 0.607546 0.000005
vt 0.329823 0.999933
vt 0.346156 0.999936
vt 0.460006 0.166841
vt 0.474802 0.313377
vt 0.431698 0.181344
vt 0.445250 0.299711
vt 0.185587 0.430794
vt 0.198288 0.417921
vt 0.171466 0.459295
vt 0.120841 0.473090
vt 0.607524 0.411306
vt 0.607526 0.380040
vt 0.593232 0.337305
vt 0.593235 0.288644
vt 0.593236 0.273159
vt 0.593244 0.116587
vt 0.859030 0.136641
vt 0.816295 0.133805
vt 0.148235 0.854525
vt 0.104090 0.011723
vt 0.154174 0.028367
vt 0.274138 0.054120
vt 0.289901 0.069673
vt 0.416950 0.300018
vt 0.431137 0.314015
vt 0.459140 0.329251
vt 0.362624 0.999939
vt 0.486938 0.136621
vt 0.507102 0.136622
vt 0.549837 0.133790
vt 0.573818 0.133792
vt 0.593243 0.133793
vt 0.768066 0.133802
vt 0.789649 0.133803
vt 0.248710 0.327255
vt 0.160582 0.240307
vt 0.239479 0.160339
vt 0.327607 0.247287
vt 0.496038 0.854589
vt 0.362651 0.854565
vt 0.881428 0.270029
vt 0.692339 0.854626
vt 0.346183 0.854562
vt 0.881435 0.136642
vt 0.329850 0.854559
vt 0.182851 0.854532
vt 0.527192 0.854595
vt 0.754523 0.411314
vt 0.164703 0.854528
vt 0.591191 0.411305
vt 0.382777 0.474058
vt 0.476458 0.379105
vt 0.014821 0.999875
vt 0.003280 0.357103
vt 0.484744 0.127506
vt 0.148208 0.999900
vt 0.473117 0.116034
vt 0.368475 0.012793
vt 0.527165 0.999969
vt 0.674164 0.999997
vt 0.115656 0.000000
vt 0.510832 0.999966
vt 0.486928 0.316095
vt 0.486930 0.284829
vt 0.591213 0.000004
vt 0.486940 0.092045
vt 0.507093 0.316096
vt 0.571047 0.028111
vt 0.772671 0.411315
vt 0.881425 0.316116
vt 0.881437 0.092066
vt 0.881436 0.120174
vt 0.795078 0.380050
vt 0.795097 0.028123
vt 0.000027 0.854498
vt 0.692313 1.000000
vt 0.318189 0.472115
vt 0.475750 0.182374
vt 0.012274 0.302234
vt 0.169835 0.012493
vt 0.372368 0.484608
vt 0.488024 0.367383
vt 0.000000 0.117225
vt 0.355556 0.000047
vt 0.417585 0.195648
vt 0.185549 0.071715
vt 0.302640 0.415879
vt 0.070604 0.291946
vt 0.057903 0.304820
vt 0.431773 0.209645
vt 0.169785 0.056162
vt 0.445885 0.195341
vt 0.289939 0.428753
vt 0.042139 0.289267
vt 0.304126 0.442750
vt 0.183898 0.041858
vn 0.000000 0.496183 0.868218
vn 0.000000 0.496183 0.868218
vn 0.000000 0.496183 0.868218
vn 0.000000 0.496183 0.868218
vn 0.000000 1.000000 0.000000
vn 0.000000 1.000000 0.000000
vn 0.000000 1.000000 -0.000000
vn 0.000000 1.000000 -0.000000
vn 0.000000 0.496183 -0.868218
vn 0.000000 0.496183 -0.868218
vn 0.000000 0.496183 -0.868218
vn 0.000000 0.496183 -0.868218
vn 0.000000 -1.000000 0.000000
vn 0.000000 -1.000000 0.000000
vn 0.000000 -1.000000 0.000000
vn 0.000000 -1.000000 0.000000
vn 0.868218 0.496183 0.000000
vn 0.868218 0.496183 0.000000
vn 0.868218 0.496183 0.000000
vn 0.868218 0.496183 0.000000
vn -0.868218 0.496183 0.000000
vn -0.868218 0.496183 0.000000
vn -0.868218 0.496183 0.000000
vn -0.868218 0.496183 0.000000
vn -0.868218 0.496183 0.000000
vn -0.868218 0.496183 0.000000
vn -0.868218 0.496183 0.000000
vn -0.868218 0.496183 0.000000
vn 0.000000 -1.000000 0.000000
vn 0.000000 -1.000000 0.000000
vn 0.000000 -1.000000 0.000000
vn 0.000000 -1.000000 0.000000
vn 0.868218 0.496183 0.000000
vn 0.868218 0.496183 0.000000
vn 0.868218 0.496183 0.000000
vn 0.868218 0.496183 0.000000
vn 0.000000 1.000000 0.000000
vn 0.000000 1.000000 0.000000
vn 0.000000 1.000000 0.000000
vn 0.000000 1.000000 0.000000
vn -0.868218 0.496183 0.000000
vn -0.868218 0.496183 -0.000000
vn 0.000000 -1.000000 0.000000
vn 0.000000 -1.000000 0.000000
vn 0.868218 0.496183 -0.000000
vn 0.868218 0.496183 0.000000
vn 0.000000 1.000000 0.000000
vn 0.000000 1.000000 0.000000
vn -0.000000 0.496183 0.868218
vn -0.000000 0.496183 0.868218
vn -0.000000 0.496183 0.868218
vn -0.000000 0.496183 0.868218
vn 0.000000 1.000000 0.000000
vn 0.000000 1.000000 0.000000
vn 0.000000 1.000000 0.000000
vn 0.000000 1.000000 0.000000
vn 0.000000 1.000000 0.000000
vn 0.000000 1.000000 0.000000
vn 0.000000 1.000000 0.000000
vn 0.000000 1.000000 0.000000
vn 0.000000 1.000000 0.000000
vn 0.000000 1.000000 0.000000
vn -0.000000 0.496183 -0.868218
vn -0.000000 0.496183 -0.868218
vn -0.000000 0.496183 -0.868218
vn -0.000000 0.496183 -0.868218
vn 0.000000 -1.000000 0.000000
vn 0.000000 -1.000000 0.000000
vn 0.000000 -1.000000 0.000000
vn 0.000000 -1.000000 0.000000
vn 0.000000 -1.000000 0.000000
vn 0.000000 -1.000000 0.000000
vn 0.000000 -1.000000 0.000000
vn 0.000000 -1.000000 0.000000
vn 0.000000 -1.000000 0.000000
vn 0.000000 -1.000000 0.000000
vn 0.000000 1.000000 0.000000
vn 0.000000 1.000000 0.000000
vn 0.000000 1.000000 0.000000
vn 0.000000 1.000000 0.000000
vn 0.000000 1.000000 0.000000
vn 0.000000 1.000000 0.000000
vn 0.000000 0.496183 0.868218
vn -0.000000 0.496183 0.868218
vn 0.000000 -1.000000 0.000000
vn 0.000000 -1.000000 0.000000
vn 0.000000 -1.000000 0.000000
vn 0.000000 -1.000000 0.000000
vn 0.000000 -1.000000 0.000000
vn -0.000000 0.496183 -0.868218
vn 0.000000 0.496183 -0.868218
vn 0.000000 1.000000 0.000000
vn 0.000000 1.000000 0.000000
vn -1.000000 0.000000 0.000001
vn -1.000000 0.000000 0.000000
vn -1.000000 0.000000 0.000000
vn -1.000000 0.000000 0.000001
vn 0.000000 0.000000 1.000000
vn 0.000000 0.000000 1.000000
vn 0.000000 0.000000 1.000000
vn 0.000000 0.000000 1.000000
vn 1.000000 0.000000 0.000000
vn 1.000000 0.000000 0.000000
vn 1.000000 0.000000 0.000000
vn 1.000000 0.000000 0.000000
vn 0.000000 0.000000 -1.000000
vn 0.000000 0.000000 -1.000000
vn 0.000000 0.000000 -1.000000
vn 0.000000 0.000000 -1.000000
vn -0.734370 -0.678750 0.000000
vn -0.734370 -0.678750 0.000000
vn -0.734370 -0.678750 0.000000
vn -0.734370 -0.678750 0.000000
vn -0.000000 -0.642597 0.766204
vn 0.000000 -0.642597 0.766204
vn -0.000000 -0.642597 0.766204
vn -0.000000 -0.642597 0.766204
vn 0.734370 -0.678749 -0.000000
vn 0.734370 -0.678749 -0.000000
vn 0.734370 -0.678749 0.000000
vn 0.734370 -0.678749 0.000000
vn 0.000000 -0.642597 -0.766204
vn 0.000000 -0.642597 -0.766204
vn -0.000000 -0.642597 -0.766204
vn -0.000000 -0.642597 -0.766204
vn -0.917950 0.396695 0.000000
vn -0.917950 0.396695 0.000000
vn -0.917950 0.396695 0.000000
vn -0.917950 0.396695 0.000000
vn 0.000000 0.365071 0.930980
vn 0.000000 0.365071 0.930980
vn 0.000000 0.365071 0.930980
vn 0.000000 0.365071 0.930980
vn 0.917950 0.396696 -0.000000
vn 0.917950 0.396696 -0.000000
vn 0.917950 0.396696 0.000000
vn 0.917950 0.396696 0.000000
vn 0.000000 0.365071 -0.930980
vn 0.000000 0.365071 -0.930980
vn 0.000000 0.365071 -0.930980
vn 0.000000 0.365071 -0.930980
vn -0.000000 0.496183 0.868218
vn -0.000000 0.496183 0.868218
vn 0.000000 1.000000 0.000000
vn 0.000000 1.000000 0.000000
vn 0.000000 0.000000 1.000000
vn 0.000000 0.000000 1.000000
vn 0.000000 0.000000 1.000000
vn 0.000000 0.000000 1.000000
vn 0.000000 -0.642597 0.766204
vn 0.000000 -0.642597 0.766204
vn 0.000000 -0.642597 0.766204
vn 0.000000 -0.642597 0.766204
vn 0.000000 0.365071 0.930980
vn 0.000000 0.365071 0.930980
vn 0.000000 0.365071 0.930980
vn 0.000000 0.365071 0.930980
vn 0.000000 1.000000 0.000000
vn 0.000000 1.000000 0.000000
vn 0.000000 1.000000 0.000000
vn 0.000000 1.000000 0.000000
vn -0.000000 0.365071 -0.930980
vn -0.000000 0.365071 -0.930980
vn 0.000000 0.365071 -0.930980
vn -0.000000 0.365071 -0.930980
vn -0.000000 -0.642597 -0.766204
vn 0.000000 -0.642597 -0.766204
vn -0.000000 -0.642597 -0.766204
vn -0.000000 -0.642597 -0.766204
vn 0.000000 0.000000 -1.000000
vn 0.000000 0.000000 -1.000000
vn 0.000000 0.000000 -1.000000
vn 0.000000 0.000000 -1.000000
vn 0.000000 1.000000 0.000000
vn 0.000000 1.000000 0.000000
vn -0.000000 0.496183 -0.868218
vn -0.000000 0.496183 -0.868218
vn 0.000000 -1.000000 0.000000
vn 0.000000 -1.000000 0.000000
vn 0.000000 -1.000000 0.000000
vn 0.000000 -1.000000 0.000000
vn 0.000000 -1.000000 0.000000
vn -0.868218 0.496183 -0.000000
vn -0.868218 0.496183 -0.000000
vn 0.000000 1.000000 -0.000000
vn 0.000000 1.000000 -0.000000
vn -1.000000 0.000000 -0.000000
vn -1.000000 0.000000 -0.000000
vn -1.000000 0.000000 -0.000001
vn -1.000000 0.000000 -0.000001
vn -0.734370 -0.678750 0.000000
vn -0.734370 -0.678750 0.000000
vn -0.734370 -0.678750 0.000000
vn -0.734370 -0.678750 0.000000
vn -0.917950 0.396695 0.000000
vn -0.917950 0.396695 0.000000
vn -0.917950 0.396696 0.000000
vn -0.917950 0.396696 0.000000
vn 0.000000 1.000000 0.000000
vn 0.000000 1.000000 0.000000
vn 0.000000 1.000000 0.000000
vn 0.000000 1.000000 0.000000
vn 0.000000 1.000000 0.000000
vn 0.000000 1.000000 0.000000
vn 0.000000 1.000000 0.000000
vn 0.000000 1.000000 0.000000
vn 0.917950 0.396696 0.000000
vn 0.917950 0.396696 0.000000
vn 0.917950 0.396696 -0.000000
vn 0.917950 0.396696 0.000000
vn 0.734370 -0.678749 0.000001
vn 0.734370 -0.678749 0.000000
vn 0.734370 -0.678749 0.000000
vn 0.734370 -0.678749 0.000001
vn 1.000000 0.000000 0.000000
vn 1.000000 0.000000 0.000000
vn 1.000000 0.000000 0.000000
vn 1.000000 0.000000 0.000000
vn 0.000000 1.000000 0.000000
vn 0.000000 1.000000 0.000000
vn 0.868218 0.496183 -0.000000
vn 0.868218 0.496183 -0.000000
vn 0.000000 -1.000000 0.000000
vn 0.000000 -1.000000 0.000000
vn 0.000000 -1.000000 0.000000
vn 0.000000 -1.000000 0.000000
vn 0.000000 -1.000000 0.000000
vn 0.000000 -1.000000 0.000000
vn 0.000000 1.000000 0.000000
vn 0.000000 1.000000 0.000000
vn 0.000000 1.000000 0.000000
vn 0.000000 1.000000 0.000000
vn 0.000000 0.252229 0.967668
vn 0.000000 0.252229 0.967668
vn 0.000000 0.252229 0.967668
vn 0.000000 0.252229 0.967668
vn 0.961131 0.276091 0.000000
vn 0.961131 0.276091 0.000000
vn 0.961131 0.276091 0.000000
vn 0.961131 0.276091 0.000000
vn -0.000000 0.252230 -0.967667
vn -0.000000 0.252230 -0.967667
vn -0.000000 0.252230 -0.967667
vn -0.000000 0.252230 -0.967667
vn -0.961131 0.276091 0.000000
vn -0.961131 0.276091 0.000000
vn -0.961131 0.276091 0.000000
vn -0.961131 0.276091 0.000000
s 1
g pCube1
usemtl initialShadingGroup
f 121/173/209 137/174/210 138/175/211 123/320/212
s 2
f 123/176/213 138/317/214 139/318/215 133/178/216
s 3
f 125/319/217 141/180/218 142/181/219 127/182/220
s 4
f 134/183/221 144/184/222 137/174/223 121/173/224
s 5
f 122/185/225 135/186/226 136/187/227 124/188/228
s 6
f 134/183/229 121/173/230 123/176/231 133/178/232
f 127/182/233 130/189/234 129/190/235 125/179/236
s 4
f 127/182/237 142/181/238 143/191/239 130/189/240
s 5
f 132/192/241 131/193/242 128/194/243 126/313/244
s 2
f 129/190/245 140/196/246 141/316/247 125/179/248
s 6
f 130/189/234 211/197/249 212/198/250 129/190/235
s 4
f 130/189/240 143/191/239 228/199/251 211/197/252
s 5
f 223/200/253 224/201/254 131/193/242 132/192/241
s 2
f 212/198/255 213/287/256 140/196/246 129/190/245
s 1
f 147/203/257 148/204/258 122/185/259 124/314/260
s 2
f 146/205/261 147/312/262 124/188/263 136/187/264
f 145/310/265 222/207/266 223/200/267 132/192/268
f 152/309/269 145/310/265 132/192/268 126/313/270
s 3
f 151/209/271 152/208/272 126/195/273 128/194/274
s 4
f 150/210/275 151/209/276 128/194/277 131/193/278
f 224/201/279 225/211/280 150/210/275 131/193/278
f 148/204/281 149/212/282 135/186/283 122/185/284
s 17
f 162/213/285 216/214/286 217/215/287 171/216/288
s 2
f 139/177/215 138/175/214 166/217/289 167/218/290
s 1
f 138/175/211 137/174/210 165/219/291 166/217/292
s 4
f 137/174/223 144/184/222 178/220/293 165/219/294
f 227/221/295 228/199/251 143/191/239 177/222/296
f 143/191/239 142/181/238 176/223/297 177/222/296
s 3
f 142/181/219 141/180/218 175/224/298 176/223/299
s 2
f 141/180/247 140/315/246 174/294/300 175/224/301
s 18
f 140/321/302 213/202/303 214/299/304 154/227/305
s 19
f 139/295/306 167/292/307 168/228/308 153/229/309
s 20
f 221/230/310 222/285/311 145/206/312 156/308/313
s 21
f 173/306/314 174/225/315 140/288/316 154/322/317
s 22
f 154/329/318 214/226/319 215/233/320 158/234/321
s 23
f 153/330/322 168/304/323 169/235/324 157/236/325
s 24
f 220/237/326 221/297/327 156/327/328 160/323/329
s 25
f 172/239/330 173/232/331 154/300/332 158/325/333
s 26
f 158/234/334 215/233/335 216/214/336 162/213/337
s 27
f 157/236/338 169/235/339 170/240/340 161/241/341
s 28
f 219/242/342 220/237/343 160/323/344 164/341/345
s 29
f 171/335/346 172/239/347 158/325/348 162/340/349
s 1
f 187/244/350 188/245/351 148/204/258 147/203/257
s 2
f 186/246/352 187/244/353 147/203/262 146/311/261
s 19
f 185/247/354 186/291/355 146/289/356 155/248/357
s 23
f 184/249/358 185/303/359 155/301/360 159/324/361
s 27
f 183/251/362 184/249/363 159/324/364 163/338/365
s 17
f 182/339/366 218/333/367 219/242/368 164/341/369
s 29
f 160/238/370 181/255/371 182/253/372 164/243/373
s 25
f 156/231/374 180/256/375 181/255/376 160/238/377
s 21
f 145/206/378 179/293/379 180/305/380 156/308/381
s 2
f 192/258/382 179/257/383 145/296/265 152/208/269
s 3
f 191/259/384 192/258/385 152/208/272 151/209/271
s 4
f 190/260/386 191/259/387 151/209/276 150/210/275
f 225/211/280 226/261/388 190/260/386 150/210/275
f 188/245/389 189/262/390 149/212/282 148/204/281
s 21
f 180/305/380 179/293/379 174/225/315 173/306/314
s 25
f 181/255/376 180/256/375 173/232/331 172/239/330
s 29
f 182/253/372 181/255/371 172/239/347 171/335/346
s 17
f 171/335/288 217/334/287 218/254/367 182/253/366
s 27
f 170/240/340 169/235/339 184/249/363 183/251/362
s 23
f 169/235/324 168/304/323 185/303/359 184/249/358
s 19
f 168/228/308 167/292/307 186/291/355 185/247/354
s 2
f 167/218/290 166/217/289 187/244/353 186/246/352
s 1
f 166/217/292 165/219/291 188/245/351 187/244/350
s 4
f 165/219/294 178/220/293 189/262/390 188/245/389
f 226/261/388 227/221/295 177/222/296 190/260/386
f 177/222/296 176/223/297 191/259/387 190/260/386
s 3
f 176/223/299 175/224/298 192/258/385 191/259/384
s 2
f 175/224/301 174/294/300 179/257/383 192/258/382
s 6
f 194/263/391 193/264/392 134/183/229 133/178/232
s 2
f 133/178/216 139/318/215 195/290/393 194/263/394
s 18
f 196/302/395 195/265/396 139/295/397 153/229/398
s 22
f 197/267/399 196/266/400 153/307/401 157/326/402
s 26
f 198/337/403 197/267/404 157/326/405 161/342/406
s 17
f 199/269/407 198/268/408 161/241/409 170/240/410
f 200/331/411 199/269/407 170/240/410 183/251/412
f 201/336/413 200/331/411 183/251/412 163/338/414
s 28
f 159/250/415 202/272/416 201/271/417 163/252/418
s 24
f 155/328/419 203/298/420 202/272/421 159/250/422
s 20
f 146/289/423 204/286/424 203/273/425 155/248/426
s 2
f 205/275/427 204/274/428 146/205/261 136/187/264
s 5
f 136/187/227 135/186/226 206/276/429 205/275/430
s 4
f 149/212/282 207/277/431 206/276/432 135/186/283
f 189/262/390 208/278/433 207/277/431 149/212/282
f 178/220/293 209/279/434 208/278/433 189/262/390
f 144/184/222 210/280/435 209/279/434 178/220/293
f 193/264/436 210/280/435 144/184/222 134/183/221
s 6
f 212/198/250 211/197/249 193/264/392 194/263/391
s 2
f 194/263/394 195/290/393 213/287/256 212/198/255
s 18
f 214/299/304 213/202/303 195/265/396 196/302/395
s 22
f 215/233/320 214/226/319 196/266/400 197/267/399
s 26
f 216/214/336 215/233/335 197/267/404 198/337/403
s 17
f 217/215/287 216/214/286 198/337/408 199/332/407
s off
f 230/281/437 229/282/438 231/283/439 232/284/440
s 17
f 219/242/368 218/333/367 200/270/411 201/271/413
s 28
f 201/271/417 202/272/416 220/237/343 219/242/342
s 24
f 202/272/421 203/298/420 221/297/327 220/237/326
s 20
f 203/273/425 204/286/424 222/285/311 221/230/310
s 2
f 223/200/267 222/207/266 204/274/428 205/275/427
s 5
f 205/275/430 206/276/429 224/201/254 223/200/253
s 4
f 206/276/432 207/277/431 225/211/280 224/201/279
f 207/277/431 208/278/433 226/261/388 225/211/280
f 208/278/433 209/279/434 227/221/295 226/261/388
f 209/279/434 210/280/435 228/199/251 227/221/295
f 211/197/252 228/199/251 210/280/435 193/264/436
s off
f 218/254/441 217/334/442 229/282/443 230/281/444
f 217/215/445 199/332/446 231/283/447 229/282/448
f 199/269/449 200/331/450 232/284/451 231/283/452
f 200/270/453 218/333/454 230/281/455 232/284/456
