# This file uses centimeters as units for non-parametric coordinates.

mtllib digitalthingy.mtl
g default
v -0.661156 0.168690 0.030226
v 0.649017 0.140364 0.030226
v -0.653163 3.219338 0.030226
v 0.650025 3.249083 0.030226
v -0.653163 3.219338 -0.030226
v 0.650025 3.249083 -0.030226
v -0.661156 0.168690 -0.030226
v 0.649017 0.140364 -0.030226
v -0.580004 0.000000 0.030226
v -0.580004 3.409613 0.030226
v -0.580004 3.409613 -0.030226
v -0.580004 0.000000 -0.030226
v 0.594504 0.000000 0.030226
v 0.594504 3.409613 0.030226
v 0.594504 3.409613 -0.030226
v 0.594504 0.000000 -0.030226
v -0.725005 3.068652 0.030226
v -0.725005 3.068652 -0.030226
v -0.580004 3.068652 -0.030226
v 0.594504 3.068652 -0.030226
v 0.725005 3.068652 -0.030226
v 0.725005 3.068652 0.030226
v 0.594504 3.068652 0.030226
v -0.580004 3.068652 0.030226
v -0.725005 0.306865 0.030226
v -0.725005 0.306865 -0.030226
v -0.580004 0.306865 -0.030226
v 0.594504 0.306865 -0.030226
v 0.725005 0.306865 -0.030226
v 0.725005 0.306865 0.030226
v 0.594504 0.306865 0.030226
v -0.580004 0.306865 0.030226
vt 0.229205 0.000000
vt 0.458409 0.000000
vt 0.229205 0.229205
vt 0.458409 0.229205
vt 0.229205 0.458409
vt 0.458409 0.458409
vt 0.229205 0.687614
vt 0.458409 0.687614
vt 0.229205 0.916819
vt 0.458409 0.916819
vt 0.687614 0.000000
vt 0.687614 0.229205
vt 0.000000 0.000000
vt 0.000000 0.229205
vt 0.252125 0.000000
vt 0.252125 0.916819
vt 0.252125 0.229205
vt 0.252125 0.458409
vt 0.252125 0.687614
vt 0.437781 0.000000
vt 0.437781 0.916819
vt 0.437781 0.229205
vt 0.437781 0.458409
vt 0.437781 0.687614
vt 0.229205 0.206284
vt 0.000000 0.206284
vt 0.229205 0.481330
vt 0.252125 0.481330
vt 0.437781 0.481330
vt 0.458409 0.481330
vt 0.687614 0.206284
vt 0.458409 0.206284
vt 0.437781 0.206284
vt 0.252125 0.206284
vt 0.229205 0.020628
vt 0.000000 0.020628
vt 0.229205 0.666986
vt 0.252125 0.666986
vt 0.437781 0.666986
vt 0.458409 0.666986
vt 0.687614 0.020628
vt 0.458409 0.020628
vt 0.437781 0.020628
vt 0.252125 0.020628
vt 0.254875 0.072510
vt 0.296899 0.072510
vt 0.296899 0.020628
vt 0.254875 0.020628
vt 0.691103 0.000000
vt 0.755545 0.000000
vt 0.755545 0.079558
vt 0.691103 0.079558
vt 0.936175 0.000000
vt 0.978199 0.000000
vt 0.978199 0.051882
vt 0.936175 0.051882
vt 0.759723 0.000000
vt 0.824165 0.000000
vt 0.824165 0.079558
vt 0.759723 0.079558
vn 0.000000 0.000000 1.000000
vn 0.000000 0.000000 1.000000
vn 0.000000 0.000000 1.000000
vn 0.000000 0.000000 1.000000
vn -0.933386 0.358875 0.000000
vn -0.933386 0.358875 0.000000
vn -0.933386 0.358875 0.000000
vn -0.933386 0.358875 0.000000
vn 0.000000 0.000000 -1.000000
vn 0.000000 0.000000 -1.000000
vn 0.000000 0.000000 -1.000000
vn 0.000000 0.000000 -1.000000
vn -0.901146 -0.433515 0.000000
vn -0.901146 -0.433515 0.000000
vn -0.901146 -0.433515 0.000000
vn -0.901146 -0.433515 0.000000
vn 0.909737 -0.415184 0.000000
vn 0.909737 -0.415184 0.000000
vn 0.909737 -0.415184 0.000000
vn 0.909737 -0.415184 0.000000
vn -0.907769 -0.419470 0.000000
vn -0.907769 -0.419470 0.000000
vn -0.907769 -0.419470 0.000000
vn -0.907769 -0.419470 0.000000
vn 0.000000 0.000000 1.000000
vn 0.000000 0.000000 1.000000
vn 0.000000 0.000000 1.000000
vn 0.000000 0.000000 1.000000
vn 0.000000 1.000000 0.000000
vn 0.000000 1.000000 0.000000
vn 0.000000 1.000000 0.000000
vn 0.000000 1.000000 0.000000
vn 0.000000 0.000000 -1.000000
vn 0.000000 0.000000 -1.000000
vn 0.000000 0.000000 -1.000000
vn 0.000000 0.000000 -1.000000
vn 0.000000 -1.000000 0.000000
vn 0.000000 -1.000000 0.000000
vn 0.000000 -1.000000 0.000000
vn 0.000000 -1.000000 0.000000
vn 0.000000 0.000000 1.000000
vn 0.000000 0.000000 1.000000
vn 0.000000 0.000000 1.000000
vn 0.000000 0.000000 1.000000
vn 0.945072 0.326864 0.000000
vn 0.945072 0.326864 0.000000
vn 0.945072 0.326864 0.000000
vn 0.945072 0.326864 0.000000
vn 0.000000 0.000000 -1.000000
vn 0.000000 0.000000 -1.000000
vn 0.000000 0.000000 -1.000000
vn 0.000000 0.000000 -1.000000
vn 0.932168 -0.362027 0.000000
vn 0.932168 -0.362027 0.000000
vn 0.932168 -0.362027 0.000000
vn 0.932168 -0.362027 0.000000
vn -0.902657 0.430360 0.000000
vn -0.902657 0.430360 0.000000
vn -0.902657 0.430360 0.000000
vn -0.902657 0.430360 0.000000
vn 0.000000 0.000000 -1.000000
vn 0.000000 0.000000 -1.000000
vn 0.000000 0.000000 -1.000000
vn 0.000000 0.000000 -1.000000
vn 0.000000 0.000000 -1.000000
vn 0.000000 0.000000 -1.000000
vn 0.000000 0.000000 -1.000000
vn 0.000000 0.000000 -1.000000
vn 0.000000 0.000000 -1.000000
vn 0.000000 0.000000 -1.000000
vn 0.000000 0.000000 -1.000000
vn 0.000000 0.000000 -1.000000
vn 0.923440 0.383744 0.000000
vn 0.923440 0.383744 0.000000
vn 0.923440 0.383744 0.000000
vn 0.923440 0.383744 0.000000
vn 0.000000 0.000000 1.000000
vn 0.000000 0.000000 1.000000
vn 0.000000 0.000000 1.000000
vn 0.000000 0.000000 1.000000
vn 0.000000 0.000000 1.000000
vn 0.000000 0.000000 1.000000
vn 0.000000 0.000000 1.000000
vn 0.000000 0.000000 1.000000
vn 0.000000 0.000000 1.000000
vn 0.000000 0.000000 1.000000
vn 0.000000 0.000000 1.000000
vn 0.000000 0.000000 1.000000
vn -1.000000 0.000000 0.000000
vn -1.000000 0.000000 0.000000
vn -1.000000 0.000000 0.000000
vn -1.000000 0.000000 0.000000
vn 0.000000 0.000000 -1.000000
vn 0.000000 0.000000 -1.000000
vn 0.000000 0.000000 -1.000000
vn 0.000000 0.000000 -1.000000
vn 0.000000 0.000000 -1.000000
vn 0.000000 0.000000 -1.000000
vn 0.000000 0.000000 -1.000000
vn 0.000000 0.000000 -1.000000
vn 1.000000 0.000000 0.000000
vn 1.000000 0.000000 0.000000
vn 1.000000 0.000000 0.000000
vn 1.000000 0.000000 0.000000
vn 0.000000 0.000000 1.000000
vn 0.000000 0.000000 1.000000
vn 0.000000 0.000000 1.000000
vn 0.000000 0.000000 1.000000
vn 0.000000 0.000000 1.000000
vn 0.000000 0.000000 1.000000
vn 0.000000 0.000000 1.000000
vn 0.000000 0.000000 1.000000
vn 0.000000 1.000000 0.000002
vn 0.000000 1.000000 0.000002
vn 0.000000 1.000000 0.000002
vn 0.000000 1.000000 0.000002
vn 1.000000 0.000000 0.000000
vn 1.000000 0.000000 0.000000
vn 1.000000 0.000000 0.000000
vn 1.000000 0.000000 0.000000
vn 0.000000 -1.000000 -0.000001
vn 0.000000 -1.000000 -0.000001
vn 0.000000 -1.000000 -0.000001
vn 0.000000 -1.000000 -0.000001
vn -1.000000 0.000000 0.000000
vn -1.000000 0.000000 0.000000
vn -1.000000 0.000000 0.000000
vn -1.000000 0.000000 0.000000
s off
g pCube1
usemtl initialShadingGroup
f 1/1/1 9/15/2 32/44/3 25/35/4
f 3/3/5 10/17/6 11/18/7 5/5/8
f 26/37/9 27/38/10 12/19/11 7/7/12
f 7/7/13 12/19/14 9/16/15 1/9/16
f 2/2/17 8/11/18 29/41/19 30/42/20
f 7/13/21 1/1/22 25/35/23 26/36/24
f 31/43/25 32/44/26 9/15/27 13/20/28
f 11/18/29 10/17/30 14/22/31 15/23/32
f 12/19/33 27/38/34 28/39/35 16/24/36
f 9/16/37 12/19/38 16/24/39 13/21/40
f 30/42/41 31/43/42 13/20/43 2/2/44
f 15/23/45 14/22/46 4/4/47 6/6/48
f 16/24/49 28/39/50 29/40/51 8/8/52
f 13/21/53 16/24/54 8/8/55 2/10/56
f 18/26/57 17/25/58 3/3/59 5/14/60
f 5/5/61 11/18/62 19/28/63 18/27/64
f 20/29/65 19/28/66 11/18/67 15/23/68
f 21/30/69 20/29/70 15/23/71 6/6/72
f 22/32/73 21/31/74 6/12/75 4/4/76
f 14/22/77 23/33/78 22/32/79 4/4/80
f 10/17/81 24/34/82 23/33/83 14/22/84
f 17/25/85 24/34/86 10/17/87 3/3/88
f 26/36/89 25/35/90 17/25/91 18/26/92
f 18/27/93 19/28/94 27/38/95 26/37/96
f 29/40/97 28/39/98 20/29/99 21/30/100
f 30/42/101 29/41/102 21/31/103 22/32/104
f 22/32/105 23/33/106 31/43/107 30/42/108
f 25/35/109 32/44/110 24/34/111 17/25/112
f 28/45/113 27/46/114 32/47/115 31/48/116
f 24/49/117 32/50/118 27/51/119 19/52/120
f 19/53/121 20/54/122 23/55/123 24/56/124
f 20/57/125 28/58/126 31/59/127 23/60/128
g default
v -0.518515 0.509537 0.023705
v 0.508995 0.487322 0.023705
v -0.512246 2.902021 0.023705
v 0.509785 2.925350 0.023705
v -0.512246 2.902021 -0.023705
v 0.509785 2.925350 -0.023705
v -0.518515 0.509537 -0.023705
v 0.508995 0.487322 -0.023705
v -0.454871 0.377241 0.023705
v -0.454871 3.051246 0.023705
v -0.454871 3.051246 -0.023705
v -0.454871 0.377241 -0.023705
v 0.466243 0.377241 0.023705
v 0.466243 3.051246 0.023705
v 0.466243 3.051246 -0.023705
v 0.466243 0.377241 -0.023705
v -0.568589 2.783845 0.023705
v -0.568589 2.783845 -0.023705
v -0.454871 2.783845 -0.023705
v 0.466243 2.783845 -0.023705
v 0.568589 2.783845 -0.023705
v 0.568589 2.783845 0.023705
v 0.466243 2.783845 0.023705
v -0.454871 2.783845 0.023705
v -0.568589 0.617902 0.023705
v -0.568589 0.617902 -0.023705
v -0.454871 0.617902 -0.023705
v 0.466243 0.617902 -0.023705
v 0.568589 0.617902 -0.023705
v 0.568589 0.617902 0.023705
v 0.466243 0.617902 0.023705
v -0.454871 0.617902 0.023705
vt 0.640490 0.229205
vt 0.820245 0.229205
vt 0.640490 0.408960
vt 0.820245 0.408960
vt 0.640490 0.588714
vt 0.820245 0.588714
vt 0.640490 0.768469
vt 0.820245 0.768469
vt 0.640490 0.948224
vt 0.820245 0.948224
vt 1.000000 0.229205
vt 1.000000 0.408960
vt 0.460735 0.229205
vt 0.460735 0.408960
vt 0.658466 0.229205
vt 0.658466 0.948224
vt 0.658466 0.408960
vt 0.658466 0.588714
vt 0.658466 0.768469
vt 0.804067 0.229205
vt 0.804067 0.948224
vt 0.804067 0.408960
vt 0.804067 0.588714
vt 0.804067 0.768469
vt 0.640490 0.390984
vt 0.460735 0.390984
vt 0.640490 0.606690
vt 0.658466 0.606690
vt 0.804067 0.606690
vt 0.820245 0.606690
vt 1.000000 0.390984
vt 0.820245 0.390984
vt 0.804067 0.390984
vt 0.658466 0.390984
vt 0.640490 0.245383
vt 0.460735 0.245383
vt 0.640490 0.752291
vt 0.658466 0.752291
vt 0.804067 0.752291
vt 0.820245 0.752291
vt 1.000000 0.245383
vt 0.820245 0.245383
vt 0.804067 0.245383
vt 0.658466 0.245383
vt 0.333298 0.061317
vt 0.366256 0.061317
vt 0.366256 0.020628
vt 0.333298 0.020628
vt 0.828343 0.000000
vt 0.878882 0.000000
vt 0.878882 0.062393
vt 0.828343 0.062393
vt 0.298988 0.020628
vt 0.331946 0.020628
vt 0.331946 0.061317
vt 0.298988 0.061317
vt 0.882259 0.000000
vt 0.932798 0.000000
vt 0.932798 0.062393
vt 0.882259 0.062393
vn 0.000000 0.000000 1.000000
vn 0.000000 0.000000 1.000000
vn 0.000000 0.000000 1.000000
vn 0.000000 0.000000 1.000000
vn -0.933386 0.358875 0.000000
vn -0.933386 0.358875 0.000000
vn -0.933386 0.358875 0.000000
vn -0.933386 0.358875 0.000000
vn 0.000000 0.000000 -1.000000
vn 0.000000 0.000000 -1.000000
vn 0.000000 0.000000 -1.000000
vn 0.000000 0.000000 -1.000000
vn -0.901146 -0.433515 0.000000
vn -0.901146 -0.433515 0.000000
vn -0.901146 -0.433515 0.000000
vn -0.901146 -0.433515 0.000000
vn 0.909737 -0.415184 0.000000
vn 0.909737 -0.415184 0.000000
vn 0.909737 -0.415184 0.000000
vn 0.909737 -0.415184 0.000000
vn -0.907769 -0.419470 0.000000
vn -0.907769 -0.419470 0.000000
vn -0.907769 -0.419470 0.000000
vn -0.907769 -0.419470 0.000000
vn 0.000000 0.000000 1.000000
vn 0.000000 0.000000 1.000000
vn 0.000000 0.000000 1.000000
vn 0.000000 0.000000 1.000000
vn 0.000000 1.000000 0.000000
vn 0.000000 1.000000 0.000000
vn 0.000000 1.000000 0.000000
vn 0.000000 1.000000 0.000000
vn 0.000000 0.000000 -1.000000
vn 0.000000 0.000000 -1.000000
vn 0.000000 0.000000 -1.000000
vn 0.000000 0.000000 -1.000000
vn 0.000000 -1.000000 0.000000
vn 0.000000 -1.000000 0.000000
vn 0.000000 -1.000000 0.000000
vn 0.000000 -1.000000 0.000000
vn 0.000000 0.000000 1.000000
vn 0.000000 0.000000 1.000000
vn 0.000000 0.000000 1.000000
vn 0.000000 0.000000 1.000000
vn 0.945072 0.326864 0.000000
vn 0.945072 0.326864 0.000000
vn 0.945072 0.326864 0.000000
vn 0.945072 0.326864 0.000000
vn 0.000000 0.000000 -1.000000
vn 0.000000 0.000000 -1.000000
vn 0.000000 0.000000 -1.000000
vn 0.000000 0.000000 -1.000000
vn 0.932167 -0.362027 0.000000
vn 0.932167 -0.362027 0.000000
vn 0.932167 -0.362027 0.000000
vn 0.932167 -0.362027 0.000000
vn -0.902657 0.430360 0.000000
vn -0.902657 0.430360 0.000000
vn -0.902657 0.430360 0.000000
vn -0.902657 0.430360 0.000000
vn 0.000000 0.000000 -1.000000
vn 0.000000 0.000000 -1.000000
vn 0.000000 0.000000 -1.000000
vn 0.000000 0.000000 -1.000000
vn 0.000000 0.000000 -1.000000
vn 0.000000 0.000000 -1.000000
vn 0.000000 0.000000 -1.000000
vn 0.000000 0.000000 -1.000000
vn 0.000000 0.000000 -1.000000
vn 0.000000 0.000000 -1.000000
vn 0.000000 0.000000 -1.000000
vn 0.000000 0.000000 -1.000000
vn 0.923440 0.383744 0.000000
vn 0.923440 0.383744 0.000000
vn 0.923440 0.383744 0.000000
vn 0.923440 0.383744 0.000000
vn 0.000000 0.000000 1.000000
vn 0.000000 0.000000 1.000000
vn 0.000000 0.000000 1.000000
vn 0.000000 0.000000 1.000000
vn 0.000000 0.000000 1.000000
vn 0.000000 0.000000 1.000000
vn 0.000000 0.000000 1.000000
vn 0.000000 0.000000 1.000000
vn 0.000000 0.000000 1.000000
vn 0.000000 0.000000 1.000000
vn 0.000000 0.000000 1.000000
vn 0.000000 0.000000 1.000000
vn -1.000000 0.000000 0.000000
vn -1.000000 0.000000 0.000000
vn -1.000000 0.000000 0.000000
vn -1.000000 0.000000 0.000000
vn 0.000000 0.000000 -1.000000
vn 0.000000 0.000000 -1.000000
vn 0.000000 0.000000 -1.000000
vn 0.000000 0.000000 -1.000000
vn 0.000000 0.000000 -1.000000
vn 0.000000 0.000000 -1.000000
vn 0.000000 0.000000 -1.000000
vn 0.000000 0.000000 -1.000000
vn 1.000000 0.000000 0.000000
vn 1.000000 0.000000 0.000000
vn 1.000000 0.000000 0.000000
vn 1.000000 0.000000 0.000000
vn 0.000000 0.000000 1.000000
vn 0.000000 0.000000 1.000000
vn 0.000000 0.000000 1.000000
vn 0.000000 0.000000 1.000000
vn 0.000000 0.000000 1.000000
vn 0.000000 0.000000 1.000000
vn 0.000000 0.000000 1.000000
vn 0.000000 0.000000 1.000000
vn 0.000000 1.000000 0.000002
vn 0.000000 1.000000 0.000002
vn 0.000000 1.000000 0.000002
vn 0.000000 1.000000 0.000002
vn 1.000000 0.000000 0.000000
vn 1.000000 0.000000 0.000000
vn 1.000000 0.000000 0.000000
vn 1.000000 0.000000 0.000000
vn 0.000000 -1.000000 -0.000001
vn 0.000000 -1.000000 -0.000001
vn 0.000000 -1.000000 -0.000001
vn 0.000000 -1.000000 -0.000001
vn -1.000000 0.000000 0.000000
vn -1.000000 0.000000 0.000000
vn -1.000000 0.000000 0.000000
vn -1.000000 0.000000 0.000000
s off
g pCube2
usemtl initialShadingGroup
f 33/61/129 41/75/130 64/104/131 57/95/132
f 35/63/133 42/77/134 43/78/135 37/65/136
f 58/97/137 59/98/138 44/79/139 39/67/140
f 39/67/141 44/79/142 41/76/143 33/69/144
f 34/62/145 40/71/146 61/101/147 62/102/148
f 39/73/149 33/61/150 57/95/151 58/96/152
f 63/103/153 64/104/154 41/75/155 45/80/156
f 43/78/157 42/77/158 46/82/159 47/83/160
f 44/79/161 59/98/162 60/99/163 48/84/164
f 41/76/165 44/79/166 48/84/167 45/81/168
f 62/102/169 63/103/170 45/80/171 34/62/172
f 47/83/173 46/82/174 36/64/175 38/66/176
f 48/84/177 60/99/178 61/100/179 40/68/180
f 45/81/181 48/84/182 40/68/183 34/70/184
f 50/86/185 49/85/186 35/63/187 37/74/188
f 37/65/189 43/78/190 51/88/191 50/87/192
f 52/89/193 51/88/194 43/78/195 47/83/196
f 53/90/197 52/89/198 47/83/199 38/66/200
f 54/92/201 53/91/202 38/72/203 36/64/204
f 46/82/205 55/93/206 54/92/207 36/64/208
f 42/77/209 56/94/210 55/93/211 46/82/212
f 49/85/213 56/94/214 42/77/215 35/63/216
f 58/96/217 57/95/218 49/85/219 50/86/220
f 50/87/221 51/88/222 59/98/223 58/97/224
f 61/100/225 60/99/226 52/89/227 53/90/228
f 62/102/229 61/101/230 53/91/231 54/92/232
f 54/92/233 55/93/234 63/103/235 62/102/236
f 57/95/237 64/104/238 56/94/239 49/85/240
f 60/105/241 59/106/242 64/107/243 63/108/244
f 56/109/245 64/110/246 59/111/247 51/112/248
f 51/113/249 52/114/250 55/115/251 56/116/252
f 52/117/253 60/118/254 63/119/255 55/120/256
